<svg xmlns="http://www.w3.org/2000/svg" viewBox="0 0 689.97 965.79"><g id="Layer_2" data-name="Layer 2"><g id="Layer_2-2" data-name="Layer 2"><rect x="208.32" y="70.65" width="410.99" height="410.99" transform="translate(351.94 769.78) rotate(-116.57)" fill="#d0ff00" stroke="#9a9c9b" stroke-miterlimit="10" stroke-width="0.65"/><rect x="263.6" y="57.6" width="334.6" height="334.6" transform="translate(422.49 710.88) rotate(-116.57)" fill="#ef0" stroke="#9a9c9b" stroke-miterlimit="10" stroke-width="0.65"/><rect x="357.01" y="35.54" width="205.49" height="205.49" transform="translate(541.72 611.35) rotate(-116.57)" fill="#ffd900" stroke="#9a9c9b" stroke-miterlimit="10" stroke-width="0.65"/><rect x="384.64" y="29.02" width="167.3" height="167.3" transform="translate(576.99 581.9) rotate(-116.57)" fill="#ffbf00" stroke="#9a9c9b" stroke-miterlimit="10" stroke-width="0.65"/><rect x="431.65" y="17.92" width="102.33" height="102.33" transform="translate(636.99 531.81) rotate(-116.57)" fill="#ff6a00" stroke="#9a9c9b" stroke-miterlimit="10" stroke-width="0.65"/><rect x="445.41" y="14.67" width="83.31" height="83.31" transform="translate(654.56 517.14) rotate(-116.57)" fill="#ff4000" stroke="#9a9c9b" stroke-miterlimit="10" stroke-width="0.65"/><rect x="468.67" y="9.18" width="51.16" height="51.16" transform="translate(684.25 492.36) rotate(-116.57)" fill="red" stroke="#9a9c9b" stroke-miterlimit="10" stroke-width="0.65"/><rect x="162.52" y="208.44" width="410.99" height="410.99" transform="translate(162.42 928.24) rotate(-116.57)" fill="#00ff95" stroke="#9a9c9b" stroke-miterlimit="10" stroke-width="0.65"/><rect x="217.8" y="195.39" width="334.6" height="334.6" transform="translate(232.97 869.34) rotate(-116.57)" fill="#00ff51" stroke="#9a9c9b" stroke-miterlimit="10" stroke-width="0.65"/><rect x="311.21" y="173.33" width="205.49" height="205.49" transform="translate(352.2 769.8) rotate(-116.57)" fill="#5eff00" stroke="#9a9c9b" stroke-miterlimit="10" stroke-width="0.65"/><rect x="338.84" y="166.81" width="167.3" height="167.3" transform="translate(387.47 740.36) rotate(-116.57)" fill="#95ff00" stroke="#9a9c9b" stroke-miterlimit="10" stroke-width="0.65"/><rect x="385.85" y="155.71" width="102.33" height="102.33" transform="translate(447.47 690.26) rotate(-116.57)" fill="#bfff00" stroke="#9a9c9b" stroke-miterlimit="10" stroke-width="0.65"/><rect x="399.61" y="152.46" width="83.31" height="83.31" transform="translate(465.04 675.6) rotate(-116.57)" fill="#df0" stroke="#9a9c9b" stroke-miterlimit="10" stroke-width="0.65"/><rect x="422.87" y="146.97" width="51.16" height="51.16" transform="translate(494.73 650.82) rotate(-116.57)" fill="#ff0" stroke="#9a9c9b" stroke-miterlimit="10" stroke-width="0.65"/><rect x="116.6" y="346.33" width="410.99" height="410.99" transform="translate(-27.38 1086.74) rotate(-116.57)" fill="#00ffea" stroke="#9a9c9b" stroke-miterlimit="10" stroke-width="0.65"/><rect x="171.87" y="333.28" width="334.6" height="334.6" transform="translate(43.17 1027.84) rotate(-116.57)" fill="#00ffd0" stroke="#9a9c9b" stroke-miterlimit="10" stroke-width="0.65"/><rect x="265.28" y="311.23" width="205.49" height="205.49" transform="translate(162.4 928.3) rotate(-116.57)" fill="#00ffd9" stroke="#9a9c9b" stroke-miterlimit="10" stroke-width="0.65"/><rect x="292.91" y="304.7" width="167.3" height="167.3" transform="translate(197.67 898.85) rotate(-116.57)" fill="#00ffb2" stroke="#9a9c9b" stroke-miterlimit="10" stroke-width="0.65"/><rect x="339.92" y="293.6" width="102.33" height="102.33" transform="translate(257.67 848.76) rotate(-116.57)" fill="#00ff84" stroke="#9a9c9b" stroke-miterlimit="10" stroke-width="0.65"/><rect x="353.68" y="290.35" width="83.31" height="83.31" transform="translate(275.24 834.1) rotate(-116.57)" fill="#00ff48" stroke="#9a9c9b" stroke-miterlimit="10" stroke-width="0.65"/><rect x="376.94" y="284.86" width="51.16" height="51.16" transform="translate(304.92 809.32) rotate(-116.57)" fill="#51ff00" stroke="#9a9c9b" stroke-miterlimit="10" stroke-width="0.65"/><rect x="70.65" y="484.15" width="410.99" height="410.99" transform="translate(-217.13 1245.11) rotate(-116.57)" fill="#80f" stroke="#9a9c9b" stroke-miterlimit="10" stroke-width="0.65"/><rect x="125.92" y="471.1" width="334.6" height="334.6" transform="translate(-146.59 1186.21) rotate(-116.57)" fill="#50f" stroke="#9a9c9b" stroke-miterlimit="10" stroke-width="0.65"/><rect x="219.34" y="449.04" width="205.49" height="205.49" transform="translate(-27.36 1086.67) rotate(-116.57)" fill="#0037ff" stroke="#9a9c9b" stroke-miterlimit="10" stroke-width="0.65"/><rect x="246.97" y="442.52" width="167.3" height="167.3" transform="translate(7.92 1057.22) rotate(-116.57)" fill="#006fff" stroke="#9a9c9b" stroke-miterlimit="10" stroke-width="0.65"/><rect x="293.98" y="431.42" width="102.33" height="102.33" transform="translate(67.92 1007.13) rotate(-116.57)" fill="#0084ff" stroke="#9a9c9b" stroke-miterlimit="10" stroke-width="0.65"/><rect x="307.74" y="428.17" width="83.31" height="83.31" transform="translate(85.48 992.47) rotate(-116.57)" fill="#00c4ff" stroke="#9a9c9b" stroke-miterlimit="10" stroke-width="0.65"/><rect x="331" y="422.68" width="51.16" height="51.16" transform="translate(115.17 967.69) rotate(-116.57)" fill="aqua" stroke="#9a9c9b" stroke-miterlimit="10" stroke-width="0.65"/></g></g></svg>