<svg xmlns="http://www.w3.org/2000/svg" viewBox="0 0 843.7 597.08"><g id="Layer_2" data-name="Layer 2"><g id="Layer_1-2" data-name="Layer 1"><polyline points="0.9 0.9 0.9 596.18 842.79 596.18" fill="none" stroke="#0081a571" stroke-miterlimit="10" stroke-width="1.81" stroke-dasharray="5"/><polyline points="0.9 0.9 9.24 590.28 842.79 596.18" fill="none" stroke="#0081a571" stroke-miterlimit="10" stroke-width="1.81" stroke-dasharray="5"/><polyline points="0.9 0.9 17.57 584.39 842.79 596.18" fill="none" stroke="#0081a571" stroke-miterlimit="10" stroke-width="1.81" stroke-dasharray="5"/><polyline points="0.9 0.9 25.91 578.5 842.79 596.18" fill="none" stroke="#0081a571" stroke-miterlimit="10" stroke-width="1.81" stroke-dasharray="5"/><polyline points="0.9 0.9 34.24 572.6 842.79 596.18" fill="none" stroke="#0081a571" stroke-miterlimit="10" stroke-width="1.81" stroke-dasharray="5"/><polyline points="0.9 0.9 42.58 566.71 842.79 596.18" fill="none" stroke="#0081a571" stroke-miterlimit="10" stroke-width="1.81" stroke-dasharray="5"/><polyline points="0.9 0.9 50.92 560.82 842.79 596.18" fill="none" stroke="#0081a571" stroke-miterlimit="10" stroke-width="1.81" stroke-dasharray="5"/><polyline points="0.9 0.9 59.25 554.92 842.79 596.18" fill="none" stroke="#0081a571" stroke-miterlimit="10" stroke-width="1.81" stroke-dasharray="5"/><polyline points="0.9 0.9 67.59 549.03 842.79 596.18" fill="none" stroke="#0081a571" stroke-miterlimit="10" stroke-width="1.81" stroke-dasharray="5"/><polyline points="0.9 0.9 75.92 543.13 842.79 596.18" fill="none" stroke="#0081a571" stroke-miterlimit="10" stroke-width="1.81" stroke-dasharray="5"/><polyline points="0.9 0.9 84.26 537.24 842.79 596.18" fill="none" stroke="#0081a571" stroke-miterlimit="10" stroke-width="1.81" stroke-dasharray="5"/><polyline points="0.9 0.9 92.59 531.35 842.79 596.18" fill="none" stroke="#0081a571" stroke-miterlimit="10" stroke-width="1.81" stroke-dasharray="5"/><polyline points="0.9 0.9 100.93 525.45 842.79 596.18" fill="none" stroke="#0081a571" stroke-miterlimit="10" stroke-width="1.81" stroke-dasharray="5"/><polyline points="0.9 0.9 109.27 519.56 842.79 596.18" fill="none" stroke="#0081a571" stroke-miterlimit="10" stroke-width="1.81" stroke-dasharray="5"/><polyline points="0.9 0.9 117.6 513.66 842.79 596.18" fill="none" stroke="#0081a571" stroke-miterlimit="10" stroke-width="1.81" stroke-dasharray="5"/><polyline points="0.9 0.9 125.94 507.77 842.79 596.18" fill="none" stroke="#0081a571" stroke-miterlimit="10" stroke-width="1.81" stroke-dasharray="5"/><polyline points="0.9 0.9 134.27 501.88 842.79 596.18" fill="none" stroke="#0081a571" stroke-miterlimit="10" stroke-width="1.81" stroke-dasharray="5"/><polyline points="0.9 0.9 142.61 495.98 842.79 596.18" fill="none" stroke="#0081a571" stroke-miterlimit="10" stroke-width="1.81" stroke-dasharray="5"/><polyline points="0.9 0.9 150.94 490.09 842.79 596.18" fill="none" stroke="#0081a571" stroke-miterlimit="10" stroke-width="1.81" stroke-dasharray="5"/><polyline points="0.9 0.9 159.28 484.2 842.79 596.18" fill="none" stroke="#0081a571" stroke-miterlimit="10" stroke-width="1.81" stroke-dasharray="5"/><polyline points="0.9 0.9 167.61 478.3 842.79 596.18" fill="none" stroke="#0081a571" stroke-miterlimit="10" stroke-width="1.81" stroke-dasharray="5"/><polyline points="0.9 0.9 175.95 472.41 842.79 596.18" fill="none" stroke="#0081a571" stroke-miterlimit="10" stroke-width="1.81" stroke-dasharray="5"/><polyline points="0.9 0.9 184.28 466.51 842.79 596.18" fill="none" stroke="#0081a571" stroke-miterlimit="10" stroke-width="1.81" stroke-dasharray="5"/><polyline points="0.9 0.9 192.62 460.62 842.79 596.18" fill="none" stroke="#0081a571" stroke-miterlimit="10" stroke-width="1.81" stroke-dasharray="5"/><polyline points="0.9 0.9 200.96 454.73 842.79 596.18" fill="none" stroke="#0081a571" stroke-miterlimit="10" stroke-width="1.81" stroke-dasharray="5"/><polyline points="0.9 0.9 209.29 448.83 842.79 596.18" fill="none" stroke="#0081a571" stroke-miterlimit="10" stroke-width="1.81" stroke-dasharray="5"/><polyline points="0.9 0.9 217.63 442.94 842.79 596.18" fill="none" stroke="#0081a571" stroke-miterlimit="10" stroke-width="1.81" stroke-dasharray="5"/><polyline points="0.9 0.9 225.96 437.05 842.79 596.18" fill="none" stroke="#0081a571" stroke-miterlimit="10" stroke-width="1.81" stroke-dasharray="5"/><polyline points="0.9 0.9 234.3 431.15 842.79 596.18" fill="none" stroke="#0081a571" stroke-miterlimit="10" stroke-width="1.81" stroke-dasharray="5"/><polyline points="0.9 0.9 242.63 425.26 842.79 596.18" fill="none" stroke="#0081a571" stroke-miterlimit="10" stroke-width="1.81" stroke-dasharray="5"/><polyline points="0.9 0.9 250.97 419.36 842.79 596.18" fill="none" stroke="#0081a571" stroke-miterlimit="10" stroke-width="1.81" stroke-dasharray="5"/><polyline points="0.9 0.9 259.31 413.47 842.79 596.18" fill="none" stroke="#0081a571" stroke-miterlimit="10" stroke-width="1.81" stroke-dasharray="5"/><polyline points="0.9 0.9 267.64 407.58 842.79 596.18" fill="none" stroke="#0081a571" stroke-miterlimit="10" stroke-width="1.81" stroke-dasharray="5"/><polyline points="0.9 0.9 275.98 401.68 842.79 596.18" fill="none" stroke="#0081a571" stroke-miterlimit="10" stroke-width="1.81" stroke-dasharray="5"/><polyline points="0.9 0.9 284.31 395.79 842.79 596.18" fill="none" stroke="#0081a571" stroke-miterlimit="10" stroke-width="1.81" stroke-dasharray="5"/><polyline points="0.9 0.9 292.65 389.89 842.79 596.18" fill="none" stroke="#0081a571" stroke-miterlimit="10" stroke-width="1.81" stroke-dasharray="5"/><polyline points="0.9 0.9 300.98 384 842.79 596.18" fill="none" stroke="#0081a571" stroke-miterlimit="10" stroke-width="1.81" stroke-dasharray="5"/><polyline points="0.9 0.9 309.32 378.11 842.79 596.18" fill="none" stroke="#0081a571" stroke-miterlimit="10" stroke-width="1.81" stroke-dasharray="5"/><polyline points="0.9 0.9 317.65 372.21 842.79 596.18" fill="none" stroke="#0081a571" stroke-miterlimit="10" stroke-width="1.81" stroke-dasharray="5"/><polyline points="0.9 0.9 325.99 366.32 842.79 596.18" fill="none" stroke="#0081a571" stroke-miterlimit="10" stroke-width="1.81" stroke-dasharray="5"/><polyline points="0.9 0.9 334.32 360.43 842.79 596.18" fill="none" stroke="#0081a571" stroke-miterlimit="10" stroke-width="1.81" stroke-dasharray="5"/><polyline points="0.9 0.9 342.66 354.53 842.79 596.18" fill="none" stroke="#0081a571" stroke-miterlimit="10" stroke-width="1.81" stroke-dasharray="5"/><polyline points="0.9 0.9 351 348.64 842.79 596.18" fill="none" stroke="#0081a571" stroke-miterlimit="10" stroke-width="1.81" stroke-dasharray="5"/><polyline points="0.9 0.9 359.33 342.75 842.79 596.18" fill="none" stroke="#0081a571" stroke-miterlimit="10" stroke-width="1.81" stroke-dasharray="5"/><polyline points="0.9 0.9 367.67 336.85 842.79 596.18" fill="none" stroke="#0081a571" stroke-miterlimit="10" stroke-width="1.81" stroke-dasharray="5"/><polyline points="0.9 0.9 376 330.96 842.79 596.18" fill="none" stroke="#0081a571" stroke-miterlimit="10" stroke-width="1.81" stroke-dasharray="5"/><polyline points="0.9 0.9 384.34 325.06 842.79 596.18" fill="none" stroke="#0081a571" stroke-miterlimit="10" stroke-width="1.81" stroke-dasharray="5"/><polyline points="0.9 0.9 392.67 319.17 842.79 596.18" fill="none" stroke="#0081a571" stroke-miterlimit="10" stroke-width="1.81" stroke-dasharray="5"/><polyline points="0.9 0.9 401.01 313.28 842.79 596.18" fill="none" stroke="#0081a571" stroke-miterlimit="10" stroke-width="1.81" stroke-dasharray="5"/><polyline points="0.9 0.9 409.35 307.38 842.79 596.18" fill="none" stroke="#0081a571" stroke-miterlimit="10" stroke-width="1.81" stroke-dasharray="5"/><polyline points="0.9 0.9 417.68 301.49 842.79 596.18" fill="none" stroke="#0081a571" stroke-miterlimit="10" stroke-width="1.81" stroke-dasharray="5"/><polyline points="0.9 0.9 426.02 295.59 842.79 596.18" fill="none" stroke="#0081a571" stroke-miterlimit="10" stroke-width="1.81" stroke-dasharray="5"/><polyline points="0.9 0.9 434.35 289.7 842.79 596.18" fill="none" stroke="#0081a571" stroke-miterlimit="10" stroke-width="1.81" stroke-dasharray="5"/><polyline points="0.9 0.9 442.69 283.81 842.79 596.18" fill="none" stroke="#0081a571" stroke-miterlimit="10" stroke-width="1.81" stroke-dasharray="5"/><polyline points="0.9 0.9 451.02 277.91 842.79 596.18" fill="none" stroke="#0081a571" stroke-miterlimit="10" stroke-width="1.81" stroke-dasharray="5"/><polyline points="0.9 0.9 459.36 272.02 842.79 596.18" fill="none" stroke="#0081a571" stroke-miterlimit="10" stroke-width="1.81" stroke-dasharray="5"/><polyline points="0.9 0.9 467.69 266.13 842.79 596.18" fill="none" stroke="#0081a571" stroke-miterlimit="10" stroke-width="1.81" stroke-dasharray="5"/><polyline points="0.9 0.9 476.03 260.23 842.79 596.18" fill="none" stroke="#0081a571" stroke-miterlimit="10" stroke-width="1.81" stroke-dasharray="5"/><polyline points="0.9 0.9 484.37 254.34 842.79 596.18" fill="none" stroke="#0081a571" stroke-miterlimit="10" stroke-width="1.81" stroke-dasharray="5"/><polyline points="0.9 0.9 492.7 248.44 842.79 596.18" fill="none" stroke="#0081a571" stroke-miterlimit="10" stroke-width="1.81" stroke-dasharray="5"/><polyline points="0.9 0.9 501.04 242.55 842.79 596.18" fill="none" stroke="#0081a571" stroke-miterlimit="10" stroke-width="1.81" stroke-dasharray="5"/><polyline points="0.9 0.9 509.37 236.66 842.79 596.18" fill="none" stroke="#0081a571" stroke-miterlimit="10" stroke-width="1.81" stroke-dasharray="5"/><polyline points="0.9 0.9 517.71 230.76 842.79 596.18" fill="none" stroke="#0081a571" stroke-miterlimit="10" stroke-width="1.81" stroke-dasharray="5"/><polyline points="0.9 0.9 526.04 224.87 842.79 596.18" fill="none" stroke="#0081a571" stroke-miterlimit="10" stroke-width="1.81" stroke-dasharray="5"/><polyline points="0.9 0.9 534.38 218.97 842.79 596.18" fill="none" stroke="#0081a571" stroke-miterlimit="10" stroke-width="1.81" stroke-dasharray="5"/><polyline points="0.9 0.9 542.71 213.08 842.79 596.18" fill="none" stroke="#0081a571" stroke-miterlimit="10" stroke-width="1.81" stroke-dasharray="5"/><polyline points="0.9 0.9 551.05 207.19 842.79 596.18" fill="none" stroke="#0081a571" stroke-miterlimit="10" stroke-width="1.81" stroke-dasharray="5"/><polyline points="0.9 0.9 559.38 201.29 842.79 596.18" fill="none" stroke="#0081a571" stroke-miterlimit="10" stroke-width="1.81" stroke-dasharray="5"/><polyline points="0.9 0.9 567.72 195.4 842.79 596.18" fill="none" stroke="#0081a571" stroke-miterlimit="10" stroke-width="1.81" stroke-dasharray="5"/><polyline points="0.9 0.9 576.06 189.5 842.79 596.18" fill="none" stroke="#0081a571" stroke-miterlimit="10" stroke-width="1.81" stroke-dasharray="5"/><polyline points="0.9 0.9 584.39 183.61 842.79 596.18" fill="none" stroke="#0081a571" stroke-miterlimit="10" stroke-width="1.81" stroke-dasharray="5"/><polyline points="0.9 0.9 592.73 177.72 842.79 596.18" fill="none" stroke="#0081a571" stroke-miterlimit="10" stroke-width="1.81" stroke-dasharray="5"/><polyline points="0.9 0.9 601.06 171.82 842.79 596.18" fill="none" stroke="#0081a571" stroke-miterlimit="10" stroke-width="1.81" stroke-dasharray="5"/><polyline points="0.9 0.9 609.4 165.93 842.79 596.18" fill="none" stroke="#0081a571" stroke-miterlimit="10" stroke-width="1.81" stroke-dasharray="5"/><polyline points="0.9 0.9 617.73 160.04 842.79 596.18" fill="none" stroke="#0081a571" stroke-miterlimit="10" stroke-width="1.81" stroke-dasharray="5"/><polyline points="0.9 0.9 626.07 154.14 842.79 596.18" fill="none" stroke="#0081a571" stroke-miterlimit="10" stroke-width="1.81" stroke-dasharray="5"/><polyline points="0.9 0.9 634.4 148.25 842.79 596.18" fill="none" stroke="#0081a571" stroke-miterlimit="10" stroke-width="1.81" stroke-dasharray="5"/><polyline points="0.9 0.9 642.74 142.35 842.79 596.18" fill="none" stroke="#0081a571" stroke-miterlimit="10" stroke-width="1.81" stroke-dasharray="5"/><polyline points="0.9 0.9 651.08 136.46 842.79 596.18" fill="none" stroke="#0081a571" stroke-miterlimit="10" stroke-width="1.81" stroke-dasharray="5"/><polyline points="0.9 0.9 659.41 130.57 842.79 596.18" fill="none" stroke="#0081a571" stroke-miterlimit="10" stroke-width="1.81" stroke-dasharray="5"/><polyline points="0.9 0.9 667.75 124.67 842.79 596.18" fill="none" stroke="#0081a571" stroke-miterlimit="10" stroke-width="1.81" stroke-dasharray="5"/><polyline points="0.9 0.9 676.08 118.78 842.79 596.18" fill="none" stroke="#0081a571" stroke-miterlimit="10" stroke-width="1.81" stroke-dasharray="5"/><polyline points="0.9 0.9 684.42 112.89 842.79 596.18" fill="none" stroke="#0081a571" stroke-miterlimit="10" stroke-width="1.81" stroke-dasharray="5"/><polyline points="0.9 0.9 692.75 106.99 842.79 596.18" fill="none" stroke="#0081a571" stroke-miterlimit="10" stroke-width="1.81" stroke-dasharray="5"/><polyline points="0.9 0.9 701.09 101.1 842.79 596.18" fill="none" stroke="#0081a571" stroke-miterlimit="10" stroke-width="1.81" stroke-dasharray="5"/><polyline points="0.9 0.9 709.42 95.2 842.79 596.18" fill="none" stroke="#0081a571" stroke-miterlimit="10" stroke-width="1.81" stroke-dasharray="5"/><polyline points="0.9 0.9 717.76 89.31 842.79 596.18" fill="none" stroke="#0081a571" stroke-miterlimit="10" stroke-width="1.81" stroke-dasharray="5"/><polyline points="0.9 0.9 726.1 83.42 842.79 596.18" fill="none" stroke="#0081a571" stroke-miterlimit="10" stroke-width="1.81" stroke-dasharray="5"/><polyline points="0.9 0.9 734.43 77.52 842.79 596.18" fill="none" stroke="#0081a571" stroke-miterlimit="10" stroke-width="1.81" stroke-dasharray="5"/><polyline points="0.9 0.9 742.77 71.63 842.79 596.18" fill="none" stroke="#0081a571" stroke-miterlimit="10" stroke-width="1.81" stroke-dasharray="5"/><polyline points="0.9 0.9 751.1 65.73 842.79 596.18" fill="none" stroke="#0081a571" stroke-miterlimit="10" stroke-width="1.81" stroke-dasharray="5"/><polyline points="0.9 0.9 759.44 59.84 842.79 596.18" fill="none" stroke="#0081a571" stroke-miterlimit="10" stroke-width="1.81" stroke-dasharray="5"/><polyline points="0.9 0.9 767.77 53.95 842.79 596.18" fill="none" stroke="#0081a571" stroke-miterlimit="10" stroke-width="1.81" stroke-dasharray="5"/><polyline points="0.9 0.9 776.11 48.05 842.79 596.18" fill="none" stroke="#0081a571" stroke-miterlimit="10" stroke-width="1.81" stroke-dasharray="5"/><polyline points="0.9 0.9 784.44 42.16 842.79 596.18" fill="none" stroke="#0081a571" stroke-miterlimit="10" stroke-width="1.81" stroke-dasharray="5"/><polyline points="0.9 0.9 792.78 36.27 842.79 596.18" fill="none" stroke="#0081a571" stroke-miterlimit="10" stroke-width="1.81" stroke-dasharray="5"/><polyline points="0.9 0.9 801.12 30.37 842.79 596.18" fill="none" stroke="#0081a571" stroke-miterlimit="10" stroke-width="1.81" stroke-dasharray="5"/><polyline points="0.9 0.9 809.45 24.48 842.79 596.18" fill="none" stroke="#0081a571" stroke-miterlimit="10" stroke-width="1.81" stroke-dasharray="5"/><polyline points="0.9 0.9 817.79 18.59 842.79 596.18" fill="none" stroke="#0081a571" stroke-miterlimit="10" stroke-width="1.81" stroke-dasharray="5"/><polyline points="0.9 0.9 826.12 12.69 842.79 596.18" fill="none" stroke="#0081a571" stroke-miterlimit="10" stroke-width="1.81" stroke-dasharray="5"/><polyline points="0.9 0.9 834.46 6.8 842.79 596.18" fill="none" stroke="#0081a571" stroke-miterlimit="10" stroke-width="1.81" stroke-dasharray="5"/><polyline points="0.9 0.9 842.79 0.9 842.79 596.18" fill="none" stroke="#0081a571" stroke-miterlimit="10" stroke-width="1.81" stroke-dasharray="5"/></g></g></svg>