<svg xmlns="http://www.w3.org/2000/svg" xmlns:xlink="http://www.w3.org/1999/xlink" viewBox="0 0 642.52 130.29"><defs><linearGradient id="linear-gradient" x1="1.07" y1="61.31" x2="641.45" y2="61.31" gradientUnits="userSpaceOnUse"><stop offset="0" stop-color="red"/><stop offset="0.21" stop-color="#ff0"/><stop offset="0.5" stop-color="lime"/><stop offset="0.76" stop-color="aqua"/><stop offset="1" stop-color="blue"/></linearGradient></defs><g id="Layer_2" data-name="Layer 2"><g id="Layer_4" data-name="Layer 4"><path d="M56.9,0Q80.24,0,92.83,11.88T105.42,48.1a81.55,81.55,0,0,1-2.83,22.56,42.24,42.24,0,0,1-8.77,16.56A37.92,37.92,0,0,1,78.68,97.47Q69.48,101,56.9,101H22.24V0ZM58,89.69c1.51,0,3.39-.12,5.66-.35a31.69,31.69,0,0,0,7.21-1.7,32.6,32.6,0,0,0,7.57-3.89,25.6,25.6,0,0,0,6.72-6.93,38.63,38.63,0,0,0,4.88-11A57.37,57.37,0,0,0,92,49.94a67.53,67.53,0,0,0-1.77-16.2,31.09,31.09,0,0,0-5.8-12.17A25.55,25.55,0,0,0,74,13.93a41.55,41.55,0,0,0-15.71-2.61H35.68V89.69Z" fill="#fff"/><path d="M148.57,110.77a78.69,78.69,0,0,1-4.17,9,24.81,24.81,0,0,1-4.53,6,15.46,15.46,0,0,1-5.52,3.39,21.15,21.15,0,0,1-7,1.06,31.93,31.93,0,0,1-4.25-.28,20.27,20.27,0,0,1-4.1-1V118a20.35,20.35,0,0,0,3.61,1.2,15.17,15.17,0,0,0,3.47.49,10.3,10.3,0,0,0,6.15-1.77,10.83,10.83,0,0,0,3.75-5l5-12.31-29-72.71h13.58l21.36,59.84h.28l20.52-59.84H180.4Z" fill="#fff"/><path d="M255.38,100.73c-2.08,1.22-4.95,1.84-8.63,1.84a10.38,10.38,0,0,1-7.43-2.62q-2.76-2.62-2.76-8.56A28.8,28.8,0,0,1,225,100a39.67,39.67,0,0,1-23.62,1.48,21.86,21.86,0,0,1-7.71-3.53,17.06,17.06,0,0,1-5.17-6.3,21.22,21.22,0,0,1-1.91-9.41A21.39,21.39,0,0,1,188.75,72a18.46,18.46,0,0,1,5.58-6.44,25.69,25.69,0,0,1,7.93-3.75c3-.85,6-1.55,9.12-2.12,3.3-.66,6.44-1.15,9.41-1.49a52.74,52.74,0,0,0,7.85-1.41A13.14,13.14,0,0,0,234,54.11,6.56,6.56,0,0,0,236,49a12,12,0,0,0-1.49-6.37,10.2,10.2,0,0,0-3.82-3.68,15.39,15.39,0,0,0-5.23-1.69,38.71,38.71,0,0,0-5.73-.43A25.43,25.43,0,0,0,207,39.68q-5.1,2.91-5.52,11h-12a26.08,26.08,0,0,1,2.83-11.46,21.38,21.38,0,0,1,6.79-7.57,28.39,28.39,0,0,1,9.69-4.17,51.11,51.11,0,0,1,11.68-1.28,68.73,68.73,0,0,1,9.83.71,25.7,25.7,0,0,1,8.84,2.89,17,17,0,0,1,6.37,6.14q2.4,4,2.4,10.31V83.77a27.38,27.38,0,0,0,.5,6.21c.33,1.32,1.43,2,3.32,2a14.51,14.51,0,0,0,3.68-.57ZM235.86,63.24a15.15,15.15,0,0,1-6,2.46q-3.67.78-7.71,1.27c-2.68.33-5.4.7-8.13,1.12a30.27,30.27,0,0,0-7.36,2,13.18,13.18,0,0,0-5.3,4,11.16,11.16,0,0,0-2,7.11,9.68,9.68,0,0,0,1.2,5,9.88,9.88,0,0,0,3.11,3.31,12.86,12.86,0,0,0,4.46,1.83,24.56,24.56,0,0,0,5.37.57,28.63,28.63,0,0,0,10.19-1.62,21.3,21.3,0,0,0,6.93-4.09,16.07,16.07,0,0,0,4-5.35,13.45,13.45,0,0,0,1.28-5.42Z" fill="#fff"/><path d="M279.28,0V101h-12V0Z" fill="#fff"/><path d="M349.73,96.34q-8.21,6.22-20.65,6.23a37.67,37.67,0,0,1-15.21-2.83,30,30,0,0,1-10.82-7.93,33.51,33.51,0,0,1-6.58-12.16A58.82,58.82,0,0,1,294,64.23,43.94,43.94,0,0,1,296.54,49a36.72,36.72,0,0,1,7.14-12A32.58,32.58,0,0,1,314.58,29a33.32,33.32,0,0,1,13.79-2.83q9.76,0,16.2,4A32.15,32.15,0,0,1,354.9,40.46,40.63,40.63,0,0,1,360.27,54a58.2,58.2,0,0,1,1.2,14H306.73a28.8,28.8,0,0,0,1.13,9.12,20.55,20.55,0,0,0,4.1,7.64,20.2,20.2,0,0,0,7.22,5.31,24.87,24.87,0,0,0,10.32,2q7.65,0,12.52-3.54t6.44-10.75h11.88Q357.94,90.11,349.73,96.34Zm-2.9-47a20.59,20.59,0,0,0-4.38-6.58,20.9,20.9,0,0,0-6.51-4.38,20.67,20.67,0,0,0-8.28-1.63,21,21,0,0,0-8.41,1.63,19.31,19.31,0,0,0-6.44,4.46,21.21,21.21,0,0,0-4.24,6.57,24.79,24.79,0,0,0-1.84,8h42A24.56,24.56,0,0,0,346.83,49.37Z" fill="#fff"/><path d="M417.64,40.6q-4.53-3.83-12.17-3.82a22.32,22.32,0,0,0-10.89,2.41,19.39,19.39,0,0,0-7,6.36,26.82,26.82,0,0,0-3.74,9.13,49.37,49.37,0,0,0-1.14,10.68,40.24,40.24,0,0,0,1.21,9.9,26.44,26.44,0,0,0,3.75,8.56,18.84,18.84,0,0,0,6.64,6,19.93,19.93,0,0,0,9.77,2.27q8.91,0,13.93-4.67t6.15-13.16h12.31q-2,13.59-10.11,20.94t-22.14,7.36a38.14,38.14,0,0,1-14.79-2.69,28.69,28.69,0,0,1-10.75-7.64,33.09,33.09,0,0,1-6.51-11.82A49.28,49.28,0,0,1,370,65.36,53.83,53.83,0,0,1,372.08,50a35.59,35.59,0,0,1,6.44-12.45,30.22,30.22,0,0,1,10.82-8.35,35.55,35.55,0,0,1,15.14-3,44.2,44.2,0,0,1,11.67,1.49,28.48,28.48,0,0,1,9.62,4.59,25.19,25.19,0,0,1,6.86,7.86A29.1,29.1,0,0,1,436,51.35H423.58A18.41,18.41,0,0,0,417.64,40.6Z" fill="#fff"/><path d="M481.15,27.87V38.48H466.58V83.89a12.92,12.92,0,0,0,.36,3.4,3.49,3.49,0,0,0,1.34,2,6.06,6.06,0,0,0,2.76.92,40.53,40.53,0,0,0,4.6.21h5.51V101H472a42.61,42.61,0,0,1-8-.64A11.72,11.72,0,0,1,458.59,98a10,10,0,0,1-3-4.81,27.83,27.83,0,0,1-1-8.21V38.48H442.11V27.87h12.45V5.94h12V27.87Z" fill="#fff"/><path d="M523.17,110.77a76.92,76.92,0,0,1-4.18,9,24.53,24.53,0,0,1-4.52,6,15.46,15.46,0,0,1-5.52,3.39,21.15,21.15,0,0,1-7,1.06,31.93,31.93,0,0,1-4.25-.28,20.27,20.27,0,0,1-4.1-1V118a20.35,20.35,0,0,0,3.61,1.2,15.1,15.1,0,0,0,3.46.49,10.31,10.31,0,0,0,6.16-1.77,10.83,10.83,0,0,0,3.75-5l4.95-12.31-29-72.71h13.58l21.36,59.84h.28l20.52-59.84H555Z" fill="#fff"/><path d="M577.92,0V59.84l33.38-32h16.13l-29,26.6L629.55,101H614.27l-25-38.2L577.92,73.28V101h-12V0Z" fill="#fff"/><rect x="1.07" y="45.3" width="640.38" height="32.01" stroke="#fff" stroke-miterlimit="10" stroke-width="2.14" opacity="0.5" fill="url(#linear-gradient)"/></g></g></svg>