<svg xmlns="http://www.w3.org/2000/svg" viewBox="0 0 1885.03 1046.7"><g id="Layer_2" data-name="Layer 2"><g id="Layer_5" data-name="Layer 5"><path d="M6.16,824.29C98,759.16,227.4,751.81,326,806.12c51.92,28.6,94.84,72.16,148.37,97.61,52.22,24.83,111.1,30.85,168.65,36.51,141.67,13.94,396,130.48,533.08,92,169.05-47.43,197.72-271.5,355.43-348.67a954.37,954.37,0,0,1,345.13-94.05" fill="none" stroke="#fff" stroke-miterlimit="10"/><path d="M6.4,830.31c90.61-59.49,217.78-65.4,315.77-13.25,51.56,27.45,94.5,69.11,147.64,93.18,52.43,23.74,111.25,29,168.69,33.88,143.26,11.67,393.36,119.32,532.38,81.1A232.18,232.18,0,0,0,1243.06,991c52-36.5,90.47-88.3,129.61-142.4,43.6-60.25,89.56-118.15,159.12-149.41q28.56-12.83,58-23.88a1081.81,1081.81,0,0,1,287.27-65" fill="none" stroke="#fff" stroke-miterlimit="10"/><path d="M6.64,836.34C96,782.47,221,778,318.33,828c51.19,26.31,94.18,66.07,146.91,88.75S576.62,944.08,634,948c144.81,9.88,390.71,108.15,531.68,70.17a244.34,244.34,0,0,0,72.49-33.08c51.95-34.79,92.14-80.44,132-131.35,44.79-57.16,92.23-110.39,161.85-138.9q28.62-11.69,58.1-21.8a1252.24,1252.24,0,0,1,287.33-61.93" fill="none" stroke="#fff" stroke-miterlimit="10"/><path d="M6.88,842.36c88.15-48.23,210.87-51.25,307.6-3.43,50.83,25.17,93.87,63,146.19,84.32,52.87,21.54,111.52,25.57,168.76,28.63,146.41,7.82,388.07,97,531,59.25a258.47,258.47,0,0,0,72.79-32c51.86-33.11,93.87-72.6,134.48-120.32,46-54.06,94.91-102.61,164.58-128.39q28.68-10.53,58.19-19.71a1490.47,1490.47,0,0,1,287.39-58.85" fill="none" stroke="#fff" stroke-miterlimit="10"/><path d="M7.12,848.39c86.93-42.6,207.41-44.18,303.52,1.48,50.46,24,93.57,59.93,145.46,79.89,53.11,20.42,111.67,23.78,168.8,26,148,5.74,385.51,86.15,530.28,48.33a272,272,0,0,0,73.11-30.86c51.74-31.43,95.62-64.75,136.92-109.27,47.29-51,97.57-94.85,167.31-117.88q28.73-9.39,58.28-17.63a1845.65,1845.65,0,0,1,287.44-55.77" fill="none" stroke="#fff" stroke-miterlimit="10"/><path d="M7.36,854.41c85.7-37,204-37.09,299.44,6.39,50.09,22.88,93.28,56.85,144.73,75.46,53.36,19.3,111.82,22,168.84,23.37,149.59,3.63,382.87,75,529.58,37.41a290.5,290.5,0,0,0,73.41-29.75c51.62-29.77,97.42-56.9,139.36-98.23,48.61-47.92,100.25-87.09,170-107.37,19.19-5.51,38.65-10.64,58.37-15.54a2435.27,2435.27,0,0,1,287.5-52.7" fill="none" stroke="#fff" stroke-miterlimit="10"/><path d="M7.6,860.44c84.47-31.34,200.5-30,295.36,11.3,49.72,21.73,93,53.75,144,71,53.61,18.16,112,20.18,168.88,20.74C767,965,996.07,1027.43,1144.72,990a311.49,311.49,0,0,0,73.72-28.64c51.47-28.12,99.26-49,141.79-87.19,50-44.84,102.93-79.32,172.77-96.85,19.23-4.75,38.71-9.18,58.47-13.46,92.26-20,190.42-36.83,287.55-49.63" fill="none" stroke="#fff" stroke-miterlimit="10"/><path d="M7.84,866.46c83.24-25.7,197-22.94,291.27,16.22,49.36,20.58,92.73,50.63,143.28,66.59,53.88,17,112.14,19.32,168.92,18.12,152.76-3.22,377.59,52.8,528.18,15.55a336.74,336.74,0,0,0,74-27.52c51.31-26.5,101.15-41.17,144.22-76.15,51.41-41.76,105.57-71.7,175.51-86.34,19.25-4,38.77-7.72,58.55-11.38,92.4-17.07,190.71-32.88,287.61-46.55" fill="none" stroke="#fff" stroke-miterlimit="10"/><path d="M8.08,872.48c82-20.07,193.59-15.86,287.19,21.13,49,19.45,92.46,47.51,142.55,62.17,54.15,15.85,112.28,16.54,169,15.49,154.4-2.86,374.94,41.66,527.48,4.63a367.79,367.79,0,0,0,74.33-26.42c51.14-24.88,103.1-33.26,146.66-65.1,52.88-38.66,108.25-63.94,178.24-75.83,19.29-3.28,38.84-6.26,58.65-9.3,92.53-14.16,191-28.93,287.67-43.47" fill="none" stroke="#fff" stroke-miterlimit="10"/><path d="M8.32,878.51c80.79-14.44,190.13-8.79,283.11,26,48.62,18.3,92.2,44.36,141.83,57.74,54.42,14.66,112.42,14.69,169,12.85,156-5.07,372.3,30.52,526.78-6.29a405,405,0,0,0,74.65-25.3c51-23.28,105.08-25.34,149.09-54.07,54.41-35.52,110.94-56.18,181-65.31,19.33-2.52,38.91-4.8,58.74-7.21,92.68-11.27,191.28-25,287.73-40.4" fill="none" stroke="#fff" stroke-miterlimit="10"/><path d="M8.56,884.53c79.56-8.8,186.67-1.71,279,31,48.26,17.16,91.94,41.21,141.1,53.31,54.7,13.47,112.57,12.85,169,10.23,157.62-7.31,369.65,19.37,526.08-17.21a452.42,452.42,0,0,0,75-24.2c50.77-21.7,107.12-17.37,151.54-43,56-32.34,113.61-48.42,183.7-54.8,19.37-1.77,39-3.33,58.83-5.13,92.81-8.37,191.56-21,287.78-37.32" fill="none" stroke="#fff" stroke-miterlimit="10"/><path d="M8.8,890.56c78.34-3.18,183.22,5.37,274.94,35.86,47.9,16,91.7,38,140.38,48.88,55,12.26,112.73,11,169.06,7.6,159.23-9.58,367,8.2,525.38-28.14a512,512,0,0,0,75.26-23.09c50.56-20.13,109.18-9.35,154-32,57.61-29.11,116.29-40.65,186.43-44.28,19.41-1,39-1.87,58.92-3A2496,2496,0,0,0,1881,818.12" fill="none" stroke="#fff" stroke-miterlimit="10"/><path d="M9,896.58C86.15,899,188.8,909,279.9,937.36c47.53,14.87,91.46,34.83,139.65,44.44,55.28,11,112.88,9.13,169.1,5,160.83-11.88,364.35-3,524.68-39.07a593.64,593.64,0,0,0,75.56-22c50.36-18.59,111.28-1.29,156.41-20.94,59.27-25.82,119-32.88,189.16-33.78,19.45-.24,39.1-.4,59-1,93.08-2.56,192.13-13.16,287.89-31.16" fill="none" stroke="#fff" stroke-miterlimit="10"/><path d="M9.28,902.6c75.88,8.1,176.3,19.53,266.78,45.69,47.16,13.73,91.21,31.63,138.92,40,55.58,9.78,113,7.25,169.14,2.35,162.43-14.2,361.69-14.16,524-50A711.89,711.89,0,0,0,1184,919.8c50.14-17.07,113.4,6.84,158.84-9.89,61-22.45,121.66-25.11,191.9-23.27,19.48.52,39.16,1.06,59.1,1.13,93.22.33,192.42-9.22,288-28.09" fill="none" stroke="#fff" stroke-miterlimit="10"/><path d="M9.52,908.63c74.65,13.73,172.85,26.6,262.7,50.6,46.79,12.58,91,28.4,138.19,35.59,55.88,8.51,113.18,5.36,169.18-.29,164-16.54,359-25.34,523.27-60.91,26.31-5.69,51.68-12.11,76.19-19.75,49.91-15.57,115.52,15,161.27,1.14,62.66-19,124.34-17.33,194.63-12.75,19.52,1.28,39.23,2.52,59.2,3.21,93.36,3.23,192.7-5.28,288-25" fill="none" stroke="#fff" stroke-miterlimit="10"/><path d="M9.76,914.65C83.19,934,179.15,948.33,268.37,970.16c46.43,11.44,90.74,25.16,137.47,31.16,56.18,7.22,113.33,3.48,169.21-2.91,165.63-18.92,356.38-36.55,522.58-71.83,26.24-5.57,51.71-11.62,76.49-18.65,49.7-14.08,117.65,23.25,163.71,12.19,64.37-15.46,127-9.43,197.36-2.24,19.56,2.07,39.29,4,59.3,5.29,93.49,6.14,193-1.33,288.06-21.93" fill="none" stroke="#fff" stroke-miterlimit="10"/><path d="M10,920.68c72.2,25,165.94,40.75,254.53,60.42,46.06,10.3,90.5,21.9,136.74,26.73,56.48,5.9,113.47,1.57,169.25-5.54C737.73,981,924.24,954.53,1092.4,919.53c26.17-5.45,51.74-11.14,76.8-17.53,49.47-12.63,119.76,31.54,166.15,23.23,66.05-11.84,129.67-1.66,200.08,8.27,19.6,2.83,39.36,5.45,59.39,7.38,93.63,9,193.26,2.61,288.12-18.86" fill="none" stroke="#fff" stroke-miterlimit="10"/><path d="M10.24,926.7c71,30.63,162.48,47.83,250.45,65.34,45.69,9.15,90.25,18.62,136,22.3,56.78,4.56,113.62-.34,169.29-8.17,168.79-23.75,351-59,521.18-93.69,26.1-5.32,51.77-10.66,77.1-16.42,49.25-11.18,121.86,39.88,168.59,34.27,67.72-8.13,132.35,6.11,202.82,18.79,19.63,3.59,39.42,6.91,59.48,9.46,93.76,11.93,193.54,6.55,288.17-15.78" fill="none" stroke="#fff" stroke-miterlimit="10"/><path d="M10.48,932.72C80.23,969,169.5,987.64,256.85,1003c45.33,8,90,15.33,135.28,17.87,57.07,3.2,113.76-2.25,169.33-10.79,170.35-26.2,348.33-70.5,520.48-104.61,26-5.25,51.8-10.21,77.41-15.31,49-9.77,123.91,48.26,171,45.31,69.35-4.35,135,13.87,205.55,29.3,19.67,4.34,39.49,8.37,59.57,11.54,93.9,14.84,193.83,10.5,288.23-12.7" fill="none" stroke="#fff" stroke-miterlimit="10"/><path d="M10.73,938.75c68.51,41.89,155.56,62,242.27,75.16,45,6.86,89.76,12,134.56,13.44,57.36,1.81,113.89-4.17,169.37-13.42,171.91-28.68,345.68-81.67,519.77-115.54,26-5.11,51.84-9.76,77.73-14.2,48.8-8.36,126,55.18,173.45,56.35,70.92,1.75,137.7,21.64,208.28,39.82,19.71,5.1,39.56,9.83,59.67,13.62,94,17.74,194.11,14.45,288.28-9.62" fill="none" stroke="#fff" stroke-miterlimit="10"/><path d="M11,944.77c67.28,47.53,152.1,69.07,238.19,80.07a1115.82,1115.82,0,0,0,133.84,9c57.63.41,114-6.18,169.4-16,173.42-31.44,343-92.82,519.07-126.45q38.83-7.47,78-13.09c48.59-7,127.92,65.13,175.89,67.39,72.47,3.41,140.38,29.41,211,50.33,19.74,5.86,39.61,11.29,59.75,15.71,94.18,20.63,194.4,18.38,288.34-6.55" fill="none" stroke="#fff" stroke-miterlimit="10"/><path d="M11.21,950.8c100.24,80.67,238.56,91.85,367.22,89.56,267.81-4.77,500.08-137.16,766.15-168,48.38-5.61,129.85,73.61,178.32,78.44,94.62,9.42,181.34,55.6,273.6,78.63a571.21,571.21,0,0,0,288.4-3.47" fill="none" stroke="#fff" stroke-miterlimit="10"/><path d="M.05,73.69c155.64-17.1,313.06-34.2,468.32-14,57.85,7.53,122.22,0,172.46,29.71,192.62,113.73,396.3,286.74,618.66-19.29,56-77,183.94-51,278.36-63.29a769.28,769.28,0,0,1,321.2,26.61" fill="none" stroke="#fff" stroke-miterlimit="10"/><path d="M.21,82c45.68-3.22,92.24-7.67,138.7-11.32,110.7-8.7,221.75-13.39,331.77-.49,58.21,6.82,122.75-.88,173.58,27.37,64.94,36.09,132.17,72.52,200.48,100.76C889.87,217,933,231.66,983.87,232.9c94.15,2.28,188.39-27.71,287.82-155.5,56.49-72.61,180.42-48,273-59.67a791.42,791.42,0,0,1,314.42,24" fill="none" stroke="#fff" stroke-miterlimit="10"/><path d="M.36,90.26c45.37-1.38,92.33-5.22,139-8.43C250.67,74.18,362.32,69.08,473,80.64c58.57,6.11,123.26-1.81,174.7,25,64.85,33.82,133.06,61.54,201.88,86.82,45.27,16.63,85.85,30.29,141.16,31.55,97.24,2.23,191.75-18,293.16-139.37,56.95-68.17,176.89-45,267.54-56a818.24,818.24,0,0,1,307.63,21.44" fill="none" stroke="#fff" stroke-miterlimit="10"/><path d="M.51,98.54C45.57,99,92.94,95.77,139.9,93,251.73,86.39,364,80.89,475.29,91.1c58.94,5.4,123.75-2.72,175.83,22.68,64.74,31.57,133.94,50.56,203.28,72.88,45.4,14.61,83.41,29.74,143.19,28.51,100.38-2.07,195-8.18,298.51-123.25,57.33-63.73,173.35-42,262.12-52.4a851.39,851.39,0,0,1,300.85,18.85" fill="none" stroke="#fff" stroke-miterlimit="10"/><path d="M.66,106.83c44.75,2.3,92.52-.33,139.74-2.65,112.39-5.57,225.25-11.49,337.2-2.61,59.3,4.68,124.22-3.62,177,20.33,64.6,29.35,134.79,39.6,204.68,58.94,45.51,12.6,81,28,145.21,25.46,103.47-4.08,198.12,1.64,303.85-107.12C1366,39.88,1478.13,60.24,1565,50.41c98.56-11.17,199.34-5,294.06,16.27" fill="none" stroke="#fff" stroke-miterlimit="10"/><path d="M.81,115.11c44.43,4.14,92.61,2.12,140.08.24,113-4.52,226.42-10.85,339-3.31,59.67,4,124.68-4.51,178.09,18,64.44,27.15,135.64,28.65,206.08,45,45.62,10.6,78.52,26.3,147.23,22.42,106.58-6,201.12,11.48,309.2-91,57.88-54.88,166.3-35.91,251.3-45.13,96.36-10.49,194.77-5.09,287.27,13.68" fill="none" stroke="#fff" stroke-miterlimit="10"/><path d="M1,123.4c44.12,6,92.7,4.56,140.43,3.12,113.51-3.47,227.58-10.21,340.82-4,60,3.26,125.12-5.38,179.21,15.64,64.26,25,136.48,17.72,207.49,31.07,45.72,8.59,76.08,24.63,149.25,19.36,109.68-7.88,204,21.32,314.54-74.87,58-50.47,162.78-32.89,245.89-41.5,94.17-9.79,190.2-5.14,280.49,11.1" fill="none" stroke="#fff" stroke-miterlimit="10"/><path d="M1.11,131.68c43.81,7.81,92.8,7,140.77,6C256,135.27,370.63,128.12,484.52,133c60.4,2.54,125.54-6.23,180.33,13.29,64.06,22.83,137.31,6.8,208.89,17.13,45.82,6.61,73.64,23,151.28,16.32,112.78-9.7,206.66,31.14,319.89-58.74C1403,74.85,1504.15,91.1,1585.38,83.09c92-9.1,185.63-5.19,273.7,8.51" fill="none" stroke="#fff" stroke-miterlimit="10"/><path d="M1.27,140c43.49,9.65,92.88,9.47,141.1,8.9,114.65-1.37,229.92-8.93,344.45-5.43,60.77,1.84,126-7.05,181.47,11,63.83,20.7,138.12-4.11,210.28,3.18,45.91,4.64,71.21,21.4,153.31,13.27,115.89-11.47,209.19,40.93,325.23-42.61,58.05-41.8,155.72-26.85,235.06-34.24,89.78-8.41,181.06-5.25,266.92,5.92" fill="none" stroke="#fff" stroke-miterlimit="10"/><path d="M1.42,148.25c43.18,11.49,93,11.91,141.45,11.78,115.2-.32,231.08-8.29,346.26-6.13,61.13,1.12,126.34-7.86,182.59,8.61,63.59,18.62,138.94-15,211.69-10.76,46,2.68,68.77,19.84,155.33,10.23,119-13.21,211.57,50.62,330.57-26.49C1427.24,98,1521.5,111.67,1599,104.88c87.58-7.72,176.49-5.31,260.13,3.34" fill="none" stroke="#fff" stroke-miterlimit="10"/><path d="M1.57,156.53c42.87,13.33,93.06,14.36,141.79,14.68,115.77.71,232.25-7.67,348.08-6.84,61.49.4,126.73-8.64,183.71,6.26,63.35,16.56,139.75-25.86,213.09-24.7,46.08.73,66.35,18.3,157.35,7.18,122.13-14.91,213.79,60.21,335.92-10.36,57.73-33.35,148.66-20.8,224.24-27,85.38-7,171.92-5.37,253.35.75" fill="none" stroke="#fff" stroke-miterlimit="10"/><path d="M1.72,164.82c42.55,15.16,93.16,16.8,142.14,17.56,116.33,1.76,233.42-7,349.88-7.55,61.86-.3,127.11-9.39,184.85,3.92,63.08,14.54,140.55-36.7,214.49-38.64,46.16-1.2,63.92,16.78,159.37,4.14,125.25-16.59,215.86,69.63,341.27,5.76,57.44-29.25,145.13-17.77,218.82-23.34,83.19-6.34,167.35-5.42,246.56-1.83" fill="none" stroke="#fff" stroke-miterlimit="10"/><path d="M1.87,173.1c42.24,17,93.25,19.25,142.48,20.45,116.9,2.81,234.59-6.39,351.7-8.25,62.22-1,127.47-10.11,186,1.57,62.82,12.55,141.37-47.53,215.89-52.58,46.24-3.13,61.51,15.29,161.4,1.09,128.38-18.24,217.8,78.87,346.61,21.9,57.09-25.25,141.6-14.76,213.41-19.72,81-5.64,162.78-5.47,239.78-4.42" fill="none" stroke="#fff" stroke-miterlimit="10"/><path d="M2,181.38c41.93,18.85,93.34,21.7,142.83,23.34,117.45,3.86,235.75-5.75,353.5-9C560.94,194,626.2,185,685.45,195c62.55,10.59,142.19-58.34,217.3-66.51,46.33-5,59.09,13.81,163.42-2,131.52-19.87,219.63,87.85,351.95,38,56.7-21.36,138.08-11.73,208-16.08,78.8-5,158.21-5.54,233-7" fill="none" stroke="#fff" stroke-miterlimit="10"/><path d="M2.17,189.67c41.62,20.68,93.43,24.14,143.17,26.22,118,4.91,236.92-5.11,355.32-9.66,62.95-2.44,128.21-11.46,188.22-3.12,62.28,8.66,143-69.13,218.7-80.45,46.42-7,56.69,12.35,165.45-5,134.66-21.5,221.38,96.57,357.29,54.14,56.28-17.57,134.55-8.71,202.59-12.45,76.6-4.26,153.64-5.59,226.21-9.59" fill="none" stroke="#fff" stroke-miterlimit="10"/><path d="M2.33,198c41.3,22.52,93.52,26.59,143.51,29.11,118.58,6,238.08-4.48,357.13-10.36,63.31-3.16,128.57-12.09,189.35-5.47,62,6.76,143.84-79.9,220.09-94.39,46.52-8.84,54.29,10.92,167.48-8,137.81-23.09,223.11,105,362.64,70.27,55.85-13.89,131-5.68,197.17-8.82,74.41-3.57,149.07-5.64,219.42-12.17" fill="none" stroke="#fff" stroke-miterlimit="10"/><path d="M2.48,206.24c41,24.35,93.61,29,143.85,32,119.15,7,239.25-3.85,358.94-11.08,63.68-3.86,128.94-12.68,190.48-7.81,61.74,4.89,144.68-90.66,221.5-108.33,46.62-10.73,51.89,9.5,169.49-11.09,141-24.69,224.87,113.06,368,86.39,55.44-10.33,127.49-2.66,191.76-5.18,72.21-2.88,144.5-5.7,212.63-14.76" fill="none" stroke="#fff" stroke-miterlimit="10"/><path d="M2.63,214.52c40.67,26.2,93.7,31.48,144.2,34.89,119.7,8,240.41-3.21,360.75-11.78,64-4.58,129.32-13.24,191.6-10.15,61.49,3,145.53-101.41,222.9-122.28,46.73-12.6,49.5,8.09,171.52-14.14,144.13-26.26,226.68,120.82,373.33,102.53,55.07-6.87,124,.36,186.35-1.56,70-2.19,139.93-5.76,205.85-17.35" fill="none" stroke="#fff" stroke-miterlimit="10"/><path d="M2.78,222.81c40.36,28,93.79,33.92,144.54,37.77,120.27,9.09,241.59-2.57,362.56-12.49,64.41-5.29,129.71-13.76,192.73-12.49C763.86,236.83,849,123.45,926.92,99.38c46.84-14.47,47.11,6.7,173.54-17.18,147.3-27.83,228.62,128.24,378.67,118.65,54.76-3.5,120.44,3.38,180.94,2.07,67.82-1.49,135.36-5.81,199.06-19.93" fill="none" stroke="#fff" stroke-miterlimit="10"/><path d="M2.93,231.09C43,261,96.82,267.46,147.82,271.75c120.83,10.14,242.75-1.93,364.37-13.19,64.77-6,130.1-14.26,193.86-14.84,61-.56,147.27-122.87,225.7-150.16,47-16.34,44.73,5.32,175.57-20.23,150.47-29.38,231,143.85,384,134.78,54.42-3.23,116.9,6.41,175.52,5.71,65.62-.81,130.79-5.87,192.28-22.52" fill="none" stroke="#fff" stroke-miterlimit="10"/><path d="M3.08,239.37c39.74,31.71,94,38.82,145.23,43.55,121.4,11.19,243.92-1.29,366.19-13.89,65.13-6.72,130.51-14.73,195-17.19,60.79-2.32,148.21-133.45,227.1-164.1,47.14-18.12,42.4,4.16,177.6-23.27,153.69-30.71,233,142.21,389.36,150.9,54.38,3,113.38,9.43,170.11,9.34,63.43-.11,126.22-5.92,185.49-25.1" fill="none" stroke="#fff" stroke-miterlimit="10"/><path d="M3.23,247.66c39.43,33.54,94.07,41.27,145.58,46.43,186.94,18.76,376.64-21.54,564.1-34.13,60.59-4.07,149.06-144.29,228.51-178,47.24-20.07,40,2.59,179.62-26.33,156.82-32.48,235.59,148.85,394.7,167,115,13.14,235.23,26.45,343.41-14.72" fill="none" stroke="#fff" stroke-miterlimit="10"/></g></g></svg>