<svg xmlns="http://www.w3.org/2000/svg" viewBox="0 0 580.54 278.63"><g id="Layer_2" data-name="Layer 2"><g id="Layer_3" data-name="Layer 3"><path d="M.41,87.7c32.14-21.79,48.78,5.5,86.79-4S194.5,47.82,229.18,71c21.56,14.4,57.77,57.65,79.71,71.58,30.43,19.32,54.86,32.17,91.13,34.8,41.37,3,108.79-64.94,138.64-91.93" fill="none" stroke="#fff" stroke-miterlimit="10" stroke-width="1.46"/><path d="M8.49,81.7C39.62,60.59,57.05,84.6,94,76.14c13.63-3.11,30.9-7.84,49-11.61,32.67-6.83,67.74-9.13,90.68,3.76,23.4,13.16,59.94,52.88,82.74,67.1,30.59,19.16,55.38,31.88,90.12,38.07,43.08,7.69,106.44-44.77,135.86-70.67" fill="none" stroke="#fff" stroke-miterlimit="10" stroke-width="1.46"/><path d="M16.58,75.7c30.11-20.43,48.34.32,84.25-7.1,13.71-2.83,30.74-6.76,48.45-9.64,31.9-5.23,65.52-4.34,89,6.63,25.35,11.86,62.11,48.1,85.77,62.6,30.76,19,56,32,89.11,41.36,45.07,12.69,104.1-24.61,133.09-49.43" fill="none" stroke="#fff" stroke-miterlimit="10" stroke-width="1.46"/><path d="M24.67,69.7c29.1-19.75,48.13-2.22,83-8.63,13.8-2.54,30.58-5.69,47.88-7.68,31.15-3.63,63.41.35,87.25,9.5,27.38,10.5,64.32,43.26,88.8,58.11,31,18.77,56.69,32.6,88.1,44.63,47.18,18.07,101.75-4.44,130.31-28.17" fill="none" stroke="#fff" stroke-miterlimit="10" stroke-width="1.46"/><path d="M32.75,63.71c28.09-19.08,48-4.75,81.7-10.18,13.9-2.24,30.42-4.61,47.32-5.71,30.38-2,61.35,4.94,85.53,12.36,29.49,9.05,66.49,38.48,91.83,53.63,31.13,18.6,57.3,33.49,87.1,47.9,49.26,23.83,99.39,15.74,127.52-6.91" fill="none" stroke="#fff" stroke-miterlimit="10" stroke-width="1.46"/><path d="M40.84,57.71C67.92,39.31,88.6,50.48,121.27,46A382.57,382.57,0,0,1,168,42.25c29.63-.43,59.34,9.43,83.82,15.23,31.64,7.49,68.66,33.7,94.86,49.14,31.29,18.43,57.81,34.63,86.09,51.18,51.21,30,97.05,35.9,124.74,14.33" fill="none" stroke="#fff" stroke-miterlimit="10" stroke-width="1.46"/><path d="M48.92,51.71C75,34,96.51,42,128.08,38.45a302.35,302.35,0,0,1,46.18-1.77c28.86,1.17,57.34,13.84,82.1,18.09,33.82,5.82,70.83,28.93,97.89,44.65,31.45,18.28,58.2,35.94,85.08,54.46,52.92,36.45,94.7,56.07,122,35.59" fill="none" stroke="#fff" stroke-miterlimit="10" stroke-width="1.46"/><path d="M57,45.71c25.05-17,47.41-12.1,77.88-14.8a246,246,0,0,1,45.61.2c28.11,2.76,55.35,18.16,80.39,21,36,4,73,24.15,100.92,40.16,31.61,18.12,58.47,37.36,84.07,57.73,54.33,43.23,92.36,76.24,119.19,56.84" fill="none" stroke="#fff" stroke-miterlimit="10" stroke-width="1.46"/><path d="M65.09,39.71c24-16.36,47.24-14.48,76.61-16.34a204.84,204.84,0,0,1,45,2.18C214.09,29.9,240.09,48,265.42,49.37c38.17,2.11,75.14,19.44,104,35.67,31.74,18,58.61,38.83,83.07,61,55.41,50.23,90,96.4,116.4,78.09" fill="none" stroke="#fff" stroke-miterlimit="10" stroke-width="1.46"/><path d="M73.18,33.72c23-15.69,47.06-16.85,75.34-17.89A174.48,174.48,0,0,1,193,20c26.59,5.95,51.34,27.82,77,26.68,40.28-1.78,77.31,14.66,107,31.19,31.9,17.86,58.63,40.32,82.06,64.28,56.15,57.41,87.66,116.58,113.63,99.35" fill="none" stroke="#fff" stroke-miterlimit="10" stroke-width="1.46"/><path d="M81.26,27.72c22-15,46.89-19.18,74.07-19.43a151.81,151.81,0,0,1,43.9,6.12C225.07,22,248.49,45.2,274.48,44c42.42-2,79.48,9.88,110,26.69,32.06,17.71,58.54,41.81,81.05,67.56,56.58,64.72,85.31,136.75,110.85,120.6" fill="none" stroke="#fff" stroke-miterlimit="10" stroke-width="1.46"/><path d="M89.35,21.72C122.09-.6,166.19-5.49,205.48,8.84,230.55,18,252.64,43.77,279,41.26c209.43-20,257.09,261.32,301.15,234.89" fill="none" stroke="#fff" stroke-miterlimit="10" stroke-width="1.46"/></g></g></svg>