<svg xmlns="http://www.w3.org/2000/svg" viewBox="0 0 277.43 53.1"><g id="Layer_2" data-name="Layer 2"><g id="Layer_3" data-name="Layer 3"><path d="M9.61,32.31a6.51,6.51,0,0,0,2,2.36A8.63,8.63,0,0,0,14.56,36a13.91,13.91,0,0,0,3.49.44,17.61,17.61,0,0,0,2.62-.21,8.84,8.84,0,0,0,2.62-.78,5.66,5.66,0,0,0,2-1.6,4,4,0,0,0,.81-2.59,3.68,3.68,0,0,0-1.07-2.74,8.59,8.59,0,0,0-2.83-1.75,28.68,28.68,0,0,0-4-1.22c-1.47-.35-3-.74-4.48-1.16A40.6,40.6,0,0,1,9.26,23a15.61,15.61,0,0,1-4-2.18,10.3,10.3,0,0,1-2.82-3.35A10.14,10.14,0,0,1,1.4,12.58,10.89,10.89,0,0,1,2.77,7,12.15,12.15,0,0,1,6.35,3.09a15.37,15.37,0,0,1,5-2.33A21,21,0,0,1,17,0,26.15,26.15,0,0,1,23.2.73a15.44,15.44,0,0,1,5.33,2.36,11.86,11.86,0,0,1,3.7,4.16,12.8,12.8,0,0,1,1.37,6.14H24.75A7.29,7.29,0,0,0,24,10.31a5.24,5.24,0,0,0-1.77-1.93,7.83,7.83,0,0,0-2.54-1,15.88,15.88,0,0,0-3.11-.29,10.32,10.32,0,0,0-2.21.24,5.74,5.74,0,0,0-2,.81,4.94,4.94,0,0,0-1.49,1.46,3.89,3.89,0,0,0-.58,2.21,3.68,3.68,0,0,0,.47,2,4.21,4.21,0,0,0,1.83,1.4,24.34,24.34,0,0,0,3.78,1.28c1.61.42,3.72,1,6.32,1.63.78.15,1.85.43,3.23.84A15.67,15.67,0,0,1,30,20.9a12.52,12.52,0,0,1,3.52,3.58A10.22,10.22,0,0,1,35,30.22a12.67,12.67,0,0,1-1.1,5.3,11.65,11.65,0,0,1-3.29,4.22,15.9,15.9,0,0,1-5.42,2.76,25.58,25.58,0,0,1-7.48,1A26.31,26.31,0,0,1,11,42.65,16.75,16.75,0,0,1,5.33,40,13.08,13.08,0,0,1,1.4,35.4,13.73,13.73,0,0,1,0,28.76H8.85A7.54,7.54,0,0,0,9.61,32.31Z" fill="#5fccfe"/><path d="M50.66,51.53A12,12,0,0,1,44,53.1c-.86,0-1.7,0-2.53-.09s-1.68-.12-2.54-.2V46l2.39.23a16.71,16.71,0,0,0,2.45.06A3.24,3.24,0,0,0,46.2,45,4.12,4.12,0,0,0,47,42.56a5,5,0,0,0-.35-1.86L36.1,12.46h8.79L51.7,33.07h.12L58.4,12.46H67L54.38,46.29A10.2,10.2,0,0,1,50.66,51.53Z" fill="#5fccfe"/><path d="M77.61,12.46v4.19h.18a9.48,9.48,0,0,1,4.07-3.81A11.74,11.74,0,0,1,87,11.65a14.07,14.07,0,0,1,5.44.9,8,8,0,0,1,3.35,2.5A9.79,9.79,0,0,1,97.5,19a24.32,24.32,0,0,1,.49,5.1V42.56H89.72v-17A10.62,10.62,0,0,0,88.56,20c-.78-1.22-2.16-1.83-4.13-1.83q-3.39,0-4.9,2c-1,1.34-1.51,3.55-1.51,6.61V42.56H69.75V12.46Z" fill="#5fccfe"/><path d="M120.81,12.46V18h-6V32.9a4,4,0,0,0,.7,2.79,4,4,0,0,0,2.79.7c.47,0,.91,0,1.34-.06a10.87,10.87,0,0,0,1.22-.17v6.4a17.18,17.18,0,0,1-2.32.23c-.86,0-1.69.06-2.51.06a23.53,23.53,0,0,1-3.64-.26,8.48,8.48,0,0,1-3-1,5.34,5.34,0,0,1-2.06-2.15,7.64,7.64,0,0,1-.76-3.67V18h-5V12.46h5v-9h8.27v9Z" fill="#5fccfe"/><path d="M133,1V16.65h.18a9.51,9.51,0,0,1,4-3.81A10.78,10.78,0,0,1,142,11.65a14.07,14.07,0,0,1,5.44.9,8,8,0,0,1,3.35,2.5,9.79,9.79,0,0,1,1.72,3.9,24.32,24.32,0,0,1,.49,5.1V42.56h-8.27v-17A10.62,10.62,0,0,0,143.58,20c-.78-1.22-2.16-1.83-4.13-1.83q-3.39,0-4.9,2c-1,1.34-1.51,3.55-1.51,6.61V42.56h-8.27V1Z" fill="#5fccfe"/><path d="M170.42,51.53a12,12,0,0,1-6.64,1.57c-.85,0-1.7,0-2.53-.09s-1.68-.12-2.53-.2V46l2.38.23a16.71,16.71,0,0,0,2.45.06A3.26,3.26,0,0,0,166,45a4.17,4.17,0,0,0,.78-2.45,4.81,4.81,0,0,0-.35-1.86L155.86,12.46h8.8l6.81,20.61h.11l6.58-20.61h8.56L174.15,46.29A10.27,10.27,0,0,1,170.42,51.53Z" fill="#5fccfe"/><path d="M196.47,35.08a4.9,4.9,0,0,0,1.43,1.57,5.94,5.94,0,0,0,2,.9,9.2,9.2,0,0,0,2.36.3,8.57,8.57,0,0,0,1.83-.21,6.19,6.19,0,0,0,1.75-.64,4.05,4.05,0,0,0,1.31-1.16,3.08,3.08,0,0,0,.52-1.84c0-1.24-.82-2.17-2.47-2.79a50.73,50.73,0,0,0-6.9-1.87c-1.21-.27-2.38-.59-3.52-1a11.7,11.7,0,0,1-3.06-1.45,7.2,7.2,0,0,1-2.16-2.27,6.47,6.47,0,0,1-.81-3.35,9.1,9.1,0,0,1,1.13-4.77,8.28,8.28,0,0,1,3-2.94,13.13,13.13,0,0,1,4.2-1.52,25.88,25.88,0,0,1,4.77-.43,23.81,23.81,0,0,1,4.74.46,12.65,12.65,0,0,1,4.11,1.57,9.56,9.56,0,0,1,3,2.94,9.92,9.92,0,0,1,1.42,4.63h-7.86a3.59,3.59,0,0,0-1.8-3.23,8.3,8.3,0,0,0-3.84-.84c-.47,0-1,0-1.52.08a5.18,5.18,0,0,0-1.48.38,3.11,3.11,0,0,0-1.14.85A2.22,2.22,0,0,0,197,20a2.29,2.29,0,0,0,.81,1.81A6.39,6.39,0,0,0,200,22.91a27.93,27.93,0,0,0,3,.79c1.12.23,2.27.48,3.43.75s2.38.61,3.52,1A11.57,11.57,0,0,1,213,27a7.42,7.42,0,0,1,2.15,2.38A7,7,0,0,1,216,32.9a9.15,9.15,0,0,1-4.31,8.21,12.9,12.9,0,0,1-4.39,1.71,25.64,25.64,0,0,1-5,.5,24.78,24.78,0,0,1-5.12-.53,13.45,13.45,0,0,1-4.46-1.74,10,10,0,0,1-3.2-3.23,10.1,10.1,0,0,1-1.37-5h7.86A4.53,4.53,0,0,0,196.47,35.08Z" fill="#5fccfe"/><path d="M231.9,51.53a12,12,0,0,1-6.64,1.57c-.85,0-1.69,0-2.53-.09s-1.68-.12-2.53-.2V46l2.39.23a16.58,16.58,0,0,0,2.44.06A3.26,3.26,0,0,0,227.45,45a4.17,4.17,0,0,0,.78-2.45,5,5,0,0,0-.34-1.86L217.35,12.46h8.79L233,33.07h.12l6.58-20.61h8.55L235.63,46.29A10.21,10.21,0,0,1,231.9,51.53Z" fill="#5fccfe"/><path d="M258,35.08a4.88,4.88,0,0,0,1.42,1.57,6.12,6.12,0,0,0,2,.9,9.25,9.25,0,0,0,2.36.3,8.57,8.57,0,0,0,1.83-.21,6.08,6.08,0,0,0,1.75-.64,4,4,0,0,0,1.31-1.16,3.08,3.08,0,0,0,.52-1.84c0-1.24-.82-2.17-2.47-2.79a50.73,50.73,0,0,0-6.9-1.87c-1.2-.27-2.38-.59-3.52-1a11.7,11.7,0,0,1-3.06-1.45,7.06,7.06,0,0,1-2.15-2.27,6.37,6.37,0,0,1-.82-3.35,9,9,0,0,1,1.14-4.77,8.13,8.13,0,0,1,3-2.94,13.07,13.07,0,0,1,4.19-1.52,25.88,25.88,0,0,1,4.77-.43,24,24,0,0,1,4.75.46,12.68,12.68,0,0,1,4.1,1.57,9.35,9.35,0,0,1,3,2.94,9.93,9.93,0,0,1,1.43,4.63h-7.86A3.62,3.62,0,0,0,267,18a8.27,8.27,0,0,0-3.84-.84c-.47,0-1,0-1.51.08a5.25,5.25,0,0,0-1.49.38,3.07,3.07,0,0,0-1.13.85,2.17,2.17,0,0,0-.47,1.48,2.26,2.26,0,0,0,.82,1.81,6.33,6.33,0,0,0,2.12,1.13,27.93,27.93,0,0,0,3,.79c1.12.23,2.27.48,3.43.75s2.38.61,3.53,1a11.66,11.66,0,0,1,3,1.55,7.45,7.45,0,0,1,2.16,2.38,7.09,7.09,0,0,1,.81,3.53,9.15,9.15,0,0,1-4.31,8.21,12.82,12.82,0,0,1-4.39,1.71,25.64,25.64,0,0,1-5,.5,24.92,24.92,0,0,1-5.12-.53,13.45,13.45,0,0,1-4.46-1.74,10.08,10.08,0,0,1-3.2-3.23,10.21,10.21,0,0,1-1.37-5h7.86A4.53,4.53,0,0,0,258,35.08Z" fill="#5fccfe"/></g></g></svg>