<svg xmlns="http://www.w3.org/2000/svg" viewBox="0 0 623.37 433.97"><g id="Layer_2" data-name="Layer 2"><g id="Layer_2-2" data-name="Layer 2"><path d="M608.07,98.84C594,72.89,578.35,47.12,556.79,31.35,515.5,1.15,631,402.28,589.53,432.19S469-20.81,306.36,153.43c-32,34.3-73.1,53.88-114.32,64.15s-85,7.06-123.82-13.15C42.43,191,19.06,170.25.36,144.15" fill="none" stroke="#a7a9ac" stroke-miterlimit="10" stroke-width="0.89"/><path d="M608.44,103.81c-14.06-25.95-29.73-51.73-51.29-67.5-41.28-30.19,70,361.49,28.62,391.4S465.77-15.63,306,157.37c-35.33,38.26-74.66,43-116.49,55.13-41.95,12.33-82.11,17.1-121-3.1C42.79,196,19.43,175.22.73,149.11" fill="none" stroke="#a7a9ac" stroke-miterlimit="10" stroke-width="0.89"/><path d="M608.8,108.78c-14.06-26-29.72-51.73-51.28-67.5-41.29-30.19,65.91,352,24.49,381.94S462.72-10.29,305.7,161.32c-38.63,42.22-76.27,32-118.65,46.1-42.73,14.25-79.26,27.15-118.1,6.94C43.16,201,19.79,180.19,1.09,154.08" fill="none" stroke="#a7a9ac" stroke-miterlimit="10" stroke-width="0.89"/><path d="M609.16,113.74c-14-25.95-29.72-51.72-51.28-67.49-41.29-30.2,61.79,342.59,20.37,372.49S459.81-4.83,305.37,165.26c-41.94,46.19-77.85,21-120.81,37.08-43.49,16.25-76.41,37.2-115.25,17-25.79-13.42-49.16-34.18-67.86-60.28" fill="none" stroke="#a7a9ac" stroke-miterlimit="10" stroke-width="0.89"/><path d="M609.53,118.71C595.47,92.76,579.81,67,558.24,51.21,517,21,615.91,384.35,574.49,414.26S457,.72,305,169.21c-45.23,50.16-79.43,10.07-123,28-44.25,18.27-73.55,47.25-112.4,27.05C43.88,210.88,20.52,190.12,1.82,164" fill="none" stroke="#a7a9ac" stroke-miterlimit="10" stroke-width="0.89"/><path d="M609.89,123.68c-14.06-26-29.72-51.73-51.28-67.5C517.32,26,612.16,379.87,570.74,409.78s-116.5-403.43-266-236.63c-48.54,54.15-81-.86-125.14,19-45,20.28-70.7,57.3-109.54,37.09C44.25,215.85,20.88,195.09,2.18,169" fill="none" stroke="#a7a9ac" stroke-miterlimit="10" stroke-width="0.89"/><path d="M610.26,128.64C596.2,102.69,580.53,76.92,559,61.15,517.68,31,608.4,375.39,567,405.29S451.56,12,304.39,177.1c-51.83,58.12-82.61-11.79-127.3,10-45.78,22.3-67.85,67.35-106.69,47.14C44.61,220.81,21.24,200.05,2.54,174" fill="none" stroke="#a7a9ac" stroke-miterlimit="10" stroke-width="0.89"/><path d="M610.62,133.61c-14.06-26-29.72-51.73-51.28-67.49-41.29-30.2,45.3,304.79,3.88,334.69S448.93,17.76,304.06,181c-55.11,62.12-84.2-22.7-129.47,1-46.53,24.33-65,77.4-103.82,57.2C45,225.78,21.61,205,2.91,178.91" fill="none" stroke="#a7a9ac" stroke-miterlimit="10" stroke-width="0.89"/><path d="M611,138.58c-14.06-26-29.72-51.73-51.28-67.5-41.29-30.19,41.18,295.34-.24,325.25S446.35,23.53,303.73,185C245.34,251.1,218,151.36,172.1,176.92c-47.29,26.36-62.13,87.45-101,67.24C45.34,230.75,22,210,3.27,183.88" fill="none" stroke="#a7a9ac" stroke-miterlimit="10" stroke-width="0.89"/><path d="M611.35,143.54c-14.06-25.95-29.73-51.72-51.29-67.49-41.29-30.2,37.06,285.89-4.36,315.8S443.79,29.34,303.41,188.94C241.74,259,216,144.4,169.61,171.84c-48.05,28.4-59.28,97.5-98.12,77.29C45.7,235.71,22.33,215,3.63,188.85" fill="none" stroke="#a7a9ac" stroke-miterlimit="10" stroke-width="0.89"/><path d="M611.71,148.51C597.65,122.56,582,96.78,560.43,81c-41.29-30.2,32.94,276.44-8.48,306.34S441.27,35.16,303.08,192.88c-64.94,74.11-88.95-55.45-136-26.12-48.8,30.43-56.42,107.54-95.26,87.34C46.07,240.68,22.7,219.92,4,193.81" fill="none" stroke="#a7a9ac" stroke-miterlimit="10" stroke-width="0.89"/><path d="M612.07,153.48C598,127.53,582.35,101.75,560.79,86c-41.29-30.19,28.82,267-12.6,296.9S438.78,41,302.75,196.83c-68.2,78.12-90.52-66.36-138.12-35.16-49.56,32.49-53.57,117.6-92.41,97.39-25.79-13.41-49.16-34.17-67.86-60.28" fill="none" stroke="#a7a9ac" stroke-miterlimit="10" stroke-width="0.89"/><path d="M612.44,158.44c-14.06-25.95-29.73-51.72-51.29-67.49-41.28-30.2,24.7,257.54-16.72,287.45S436.3,46.88,302.42,200.77c-71.46,82.14-92.1-77.26-140.28-44.18C111.83,191.12,111.43,284.24,72.58,264c-25.79-13.42-49.15-34.18-67.85-60.28" fill="none" stroke="#a7a9ac" stroke-miterlimit="10" stroke-width="0.89"/><path d="M612.8,163.41c-14.06-25.95-29.72-51.73-51.28-67.49-41.29-30.2,20.57,248.09-20.85,278S433.84,52.77,302.09,204.72c-74.7,86.16-93.67-88.16-142.44-53.21C108.59,188.09,111.79,289.2,73,269c-25.79-13.42-49.16-34.18-67.86-60.29" fill="none" stroke="#a7a9ac" stroke-miterlimit="10" stroke-width="0.89"/><path d="M613.16,168.38c-14-25.95-29.72-51.73-51.28-67.5-41.29-30.19,16.45,238.65-25,268.55S431.4,58.67,301.77,208.66c-78,90.19-95.25-99-144.62-62.24-51.79,38.64-45,147.75-83.84,127.54-25.79-13.41-49.16-34.17-67.86-60.28" fill="none" stroke="#a7a9ac" stroke-miterlimit="10" stroke-width="0.89"/><path d="M613.53,173.34c-14.06-26-29.72-51.72-51.29-67.49C521,75.65,574.57,335.05,533.16,365S429,64.59,301.44,212.61c-81.19,94.22-96.82-110-146.78-71.27-52.54,40.69-42.14,157.8-81,137.59-25.79-13.42-49.15-34.18-67.85-60.28" fill="none" stroke="#a7a9ac" stroke-miterlimit="10" stroke-width="0.89"/><path d="M613.89,178.31c-14.06-25.95-29.72-51.73-51.28-67.49-41.29-30.2,8.21,219.74-33.21,249.65s-102.83-290-228.29-143.92c-84.42,98.27-98.38-120.84-148.94-80.29C98.89,179,112.88,304.1,74,283.9c-25.79-13.42-49.16-34.18-67.86-60.29" fill="none" stroke="#a7a9ac" stroke-miterlimit="10" stroke-width="0.89"/><path d="M614.26,183.28c-14.06-25.95-29.73-51.73-51.29-67.5-41.29-30.19,4.09,210.3-37.33,240.21S424.16,76.45,300.78,220.5c-87.63,102.31-99.95-131.74-151.1-89.32C95.65,176,113.24,309.07,74.4,288.86c-25.79-13.41-49.16-34.17-67.86-60.28" fill="none" stroke="#a7a9ac" stroke-miterlimit="10" stroke-width="0.89"/><path d="M614.62,188.24c-14.06-26-29.72-51.72-51.28-67.49-41.29-30.2,0,200.85-41.46,230.75S421.77,82.39,300.45,224.44C209.61,330.82,198.94,81.81,147.19,126.09,92.42,173,113.61,314,74.77,293.83,49,280.41,25.61,259.65,6.91,233.55" fill="none" stroke="#a7a9ac" stroke-miterlimit="10" stroke-width="0.89"/><path d="M615,193.21c-14.06-26-29.72-51.73-51.28-67.49-41.29-30.2-4.16,191.4-45.58,221.3s-98.73-258.68-218-118.63C206.08,338.82,197.05,74.87,144.7,121,89.2,169.93,114,319,75.13,298.8,49.34,285.38,26,264.62,7.27,238.51" fill="none" stroke="#a7a9ac" stroke-miterlimit="10" stroke-width="0.89"/><path d="M615.35,198.18c-14.06-26-29.73-51.73-51.29-67.5-41.29-30.19-8.28,182-49.7,211.86S417,94.3,299.8,232.33C202.56,346.84,195.16,67.92,142.2,115.93c-56.23,51-27.87,208-66.71,187.83C49.7,290.35,26.33,269.59,7.63,243.48" fill="none" stroke="#a7a9ac" stroke-miterlimit="10" stroke-width="0.89"/><path d="M615.71,203.14c-14.06-25.95-29.72-51.72-51.28-67.49-41.29-30.19-12.4,172.5-53.82,202.41s-96-237.8-211.14-101.78C199.05,354.87,193.27,61,139.71,110.84c-57,53-25,218.1-63.85,197.89C50.07,295.31,26.7,274.55,8,248.45" fill="none" stroke="#a7a9ac" stroke-miterlimit="10" stroke-width="0.89"/><path d="M616.07,208.11c-14.06-26-29.72-51.73-51.28-67.49-41.29-30.2-16.52,163.05-57.94,193s-94.56-227.35-207.71-93.35C195.55,362.9,191.38,54,137.22,105.76c-57.7,55.11-22.16,228.14-61,207.94-25.79-13.42-49.16-34.18-67.86-60.29" fill="none" stroke="#a7a9ac" stroke-miterlimit="10" stroke-width="0.89"/><path d="M616.44,213.08c-14.06-26-29.73-51.73-51.29-67.5-41.28-30.19-20.64,153.61-62.06,183.51s-93.15-216.88-204.28-84.92C192.06,371,189.49,47.1,134.73,100.68c-58.43,57.17-19.3,238.19-58.15,218-25.79-13.41-49.16-34.17-67.85-60.28" fill="none" stroke="#a7a9ac" stroke-miterlimit="10" stroke-width="0.89"/><path d="M616.8,218c-14.06-25.95-29.72-51.72-51.28-67.49-41.29-30.19-24.77,144.16-66.19,174.06s-91.74-206.43-200.84-76.49C188.58,379,187.61,40.16,132.24,95.6c-59.16,59.23-16.45,248.24-55.29,228-25.79-13.42-49.16-34.18-67.86-60.28" fill="none" stroke="#a7a9ac" stroke-miterlimit="10" stroke-width="0.89"/><path d="M617.16,223c-14-25.95-29.72-51.73-51.28-67.49-41.29-30.2-28.89,134.7-70.31,164.61s-90.32-196-197.41-68.07c-113,135-112.43-218.84-168.41-161.55-59.89,61.3-13.6,258.29-52.44,238.09-25.79-13.42-49.16-34.18-67.86-60.29" fill="none" stroke="#a7a9ac" stroke-miterlimit="10" stroke-width="0.89"/><path d="M617.53,228c-14.06-25.95-29.72-51.73-51.29-67.5-41.28-30.19-33,125.26-74.42,155.17s-88.91-185.5-194-59.64C181.67,395.14,183.84,26.28,127.25,85.43c-60.61,63.36-10.73,268.34-49.58,248.13-25.79-13.41-49.15-34.17-67.85-60.28" fill="none" stroke="#a7a9ac" stroke-miterlimit="10" stroke-width="0.89"/><path d="M617.89,232.94c-14.06-25.95-29.72-51.72-51.28-67.49-41.29-30.19-37.13,115.81-78.55,145.71S400.58,136.14,297.5,260C178.23,403.22,182,19.34,124.76,80.35,63.42,145.78,116.88,358.74,78,338.53c-25.79-13.42-49.16-34.18-67.86-60.28" fill="none" stroke="#a7a9ac" stroke-miterlimit="10" stroke-width="0.89"/><path d="M618.26,237.91C604.2,212,588.53,186.18,567,170.42c-41.29-30.2-41.25,106.36-82.67,136.26S398.25,142.13,297.17,263.9C174.8,411.32,180.08,12.4,122.27,75.27c-62.06,67.49-5,288.43-43.87,268.23-25.79-13.42-49.16-34.18-67.86-60.29" fill="none" stroke="#a7a9ac" stroke-miterlimit="10" stroke-width="0.89"/><path d="M618.62,242.88c-14.06-25.95-29.72-51.73-51.28-67.5-41.29-30.19-45.38,96.91-86.8,126.82s-84.62-154.07-183.69-34.36C171.4,419.43,178.2,5.46,119.78,70.18c-62.79,69.56-2.17,298.49-41,278.28C53,335.05,29.61,314.29,10.91,288.18" fill="none" stroke="#a7a9ac" stroke-miterlimit="10" stroke-width="0.89"/><path d="M619,247.84c-14.06-26-29.72-51.72-51.28-67.49-41.29-30.19-49.5,87.46-90.92,117.37S393.6,154.13,296.52,271.79C168,427.55,176.32-1.48,117.29,65.1c-63.51,71.63.68,308.54-38.16,288.33C53.34,340,30,319.25,11.27,293.15" fill="none" stroke="#a7a9ac" stroke-miterlimit="10" stroke-width="0.89"/><path d="M619.35,252.81c-14.06-25.95-29.73-51.73-51.29-67.49-41.29-30.2-53.62,78-95,107.91s-81.74-133.1-176.83-17.5C164.63,435.68,174.45-8.42,114.8,60,50.56,133.71,118.33,378.6,79.49,358.4,53.7,345,30.33,324.22,11.63,298.11" fill="none" stroke="#a7a9ac" stroke-miterlimit="10" stroke-width="0.89"/><path d="M619.71,257.78c-14.06-25.95-29.72-51.73-51.28-67.5-41.29-30.19-57.74,68.57-99.16,98.47S389,166.13,295.86,279.68C161.27,443.83,172.57-15.36,112.3,54.93c-64.95,75.77,6.4,328.64-32.44,308.43C54.07,350,30.7,329.19,12,303.08" fill="none" stroke="#a7a9ac" stroke-miterlimit="10" stroke-width="0.89"/><path d="M620.07,262.74c-14.06-26-29.72-51.72-51.28-67.49-41.29-30.19-61.86,59.11-103.28,89s-78.85-112.14-170-.64C157.93,452,170.69-22.3,109.81,49.85c-65.67,77.83,9.25,338.69-29.59,318.48-25.79-13.42-49.16-34.18-67.86-60.28" fill="none" stroke="#a7a9ac" stroke-miterlimit="10" stroke-width="0.89"/><path d="M620.44,267.71c-14.06-25.95-29.73-51.73-51.29-67.49-41.28-30.2-66,49.66-107.4,79.57s-77.4-101.66-166.54,7.78C154.61,460.18,169-29.13,107.32,44.77c-66.25,80,12.11,348.73-26.74,328.53C54.79,359.88,31.42,339.12,12.73,313" fill="none" stroke="#a7a9ac" stroke-miterlimit="10" stroke-width="0.89"/><path d="M620.8,272.68c-14.06-26-29.72-51.73-51.28-67.5C528.23,175,499.41,245.4,458,275.3S382,184.14,294.88,291.52C151.32,468.37,167.05-36.09,104.83,39.69c-67,82.06,15,358.78-23.88,338.57C55.16,364.85,31.79,344.09,13.09,318" fill="none" stroke="#a7a9ac" stroke-miterlimit="10" stroke-width="0.89"/><path d="M621.16,277.64c-14-25.95-29.72-51.72-51.28-67.49-41.29-30.19-74.23,30.77-115.65,60.67s-74.49-80.67-159.68,24.64C148,476.59,165.16-43,102.34,34.6c-67.73,84.12,17.81,368.84-21,348.63C55.52,369.81,32.15,349.05,13.45,323" fill="none" stroke="#a7a9ac" stroke-miterlimit="10" stroke-width="0.89"/><path d="M621.53,282.61c-14.06-25.95-29.73-51.73-51.29-67.49-41.28-30.2-78.34,21.31-119.76,51.22s-73-70.19-156.26,33.07C144.8,484.82,163.27-50,99.85,29.52,31.39,115.69,120.52,408.4,81.67,388.2,55.88,374.78,32.52,354,13.82,327.91" fill="none" stroke="#a7a9ac" stroke-miterlimit="10" stroke-width="0.89"/><path d="M621.89,287.58c-14.06-25.95-29.72-51.73-51.28-67.5-41.29-30.19-82.47,11.87-123.89,41.78s-71.58-59.7-152.83,41.49C141.57,493.08,161.38-56.95,97.35,24.44,28.16,112.66,120.88,413.37,82,393.16,56.25,379.75,32.88,359,14.18,332.88" fill="none" stroke="#a7a9ac" stroke-miterlimit="10" stroke-width="0.89"/><path d="M622.26,292.54c-14.06-26-29.73-51.72-51.29-67.49-41.29-30.19-86.59,2.42-128,32.32s-70.12-49.2-149.39,49.93C138.38,501.35,159.49-63.9,94.86,19.35c-69.93,90.27,26.38,399-12.46,378.78C56.61,384.71,33.24,364,14.54,337.85" fill="none" stroke="#a7a9ac" stroke-miterlimit="10" stroke-width="0.89"/><path d="M622.62,297.51c-14.06-25.95-29.72-51.73-51.28-67.49-41.29-30.2-90.72-7-132.14,22.87s-68.49-38.58-146,58.35C135.55,509.92,157.6-70.86,92.37,14.27c-70.67,92.32,29.24,409-9.61,388.83C57,389.68,33.61,368.92,14.91,342.81" fill="none" stroke="#a7a9ac" stroke-miterlimit="10" stroke-width="0.89"/><path d="M623,302.48c-14.06-26-29.72-51.73-51.28-67.5-41.29-30.19-94.84-16.48-136.26,13.43s-67.19-28.22-142.53,66.78c-160.83,202.78-137.2-393-203-306C18.47,103.56,122,428.27,83.13,408.06,57.34,394.65,34,373.89,15.27,347.78" fill="none" stroke="#a7a9ac" stroke-miterlimit="10" stroke-width="0.89"/></g></g></svg>